# xmcd
#
# Track frame offsets: 
#        150
#        10716
#        25481
#        35862
#        47267
#        57338
#        67863
#        78386
#        88745
#        98284
#        107671
#        116898
#        128523
#        137689
#        150586
#        161391
#        170945
#        181770
#        195022
#        205527
#
# Disc length: 2944 seconds
#
# Revision: 1
# Processed by: cddbd v1.5.2PL0 Copyright (c) Steve Scherf et al.
# Submitted via: ExactAudioCopyFreeDBPlugin 1.0
#
DISCID=f10b7e14
DTITLE=Various Artist - Black Smoke: Gems From The Starday Vaults 196
DTITLE=1-1962 [CD2]
DYEAR=2013
DGENRE=Country
TTITLE0=Buck Owens - Right After The Dance
TTITLE1=Dottie West - My Big John
TTITLE2=Justin Tubb - Your Side Of The Story
TTITLE3=Red Sovine - Why Baby Why
TTITLE4=The Lonesome Pine Fiddlers - Eatin' Out Of Your Hand
TTITLE5=The Stanley Brothers - Carolina Mountain Home
TTITLE6=Moon Mullican - Ragged But Right
TTITLE7=Cowboy Copas - Flat Top
TTITLE8=Frankie Miller - Richest Poor Boy
TTITLE9=Arthur 'Guitar Boogie' Smith and His Crackerjacks - Heartaches
TTITLE10=Pete Drake - Pleading
TTITLE11=The Willis Brothers - Big Daddy (Is Alabama Bound)
TTITLE12=Melvin Morris - Spending Nights In Nashville
TTITLE13=Tommy Hill's Nashville String Band - K.C. Train Whistle Blues
TTITLE14=Hylo Brown - Prisoner's Song
TTITLE15=Hardrock Gunter - Hillbilly Twist
TTITLE16=The Willis Brothers - Morning Glory
TTITLE17=Archie Campbell - The Master's Hand
TTITLE18=Paul Wayne - Turned Her Back
TTITLE19=Bill Clifton - Give Me Your Love
EXTD=
EXTT0=
EXTT1=
EXTT2=
EXTT3=
EXTT4=
EXTT5=
EXTT6=
EXTT7=
EXTT8=
EXTT9=
EXTT10=
EXTT11=
EXTT12=
EXTT13=
EXTT14=
EXTT15=
EXTT16=
EXTT17=
EXTT18=
EXTT19=
PLAYORDER=
